<svg xmlns="http://www.w3.org/2000/svg" width="41" height="24" fill="none" viewBox="0 0 41 24"><rect width="24" height="24" x="17" fill="#fff" rx="4.5"/><path fill="#4E5664" d="M34.502 10.41a.541.541 0 1 1-1.082.001.541.541 0 0 1 1.082 0Z"/><path fill="#FFD033" d="M34.215 14.7a2.842 2.842 0 0 0-.635.02l-.058.74a2.134 2.134 0 0 1 2.547 1.6c.068.543.725.22.532-.304-.346-1.061-1.203-1.962-2.386-2.056"/><path fill="#FFD033" d="m32.903 10.753-.728.2.6 3.61-1.762 2.466h-1.98c-.41 0-.839-1.359-.93-2.56-.047-.613.691-.99.691-.99l-4.37-.512s-1.587.99-1.587 3.858v1.548h10.532l1.947-2.718s-.625-1.823-.814-2.278c-.189-.456-.723-.355-.723-.355l-.877-2.269Z"/><path fill="#4E5664" d="M22.817 17.32h2.011v1.121h-2.011c-.387 0-.378-1.121 0-1.121Z"/><path fill="#FFD033" d="M25.53 11.958a.339.339 0 0 1-.338.339h-3.49a.339.339 0 0 1-.339-.34V8.367c0-.187.152-.339.339-.339h3.49c.186 0 .338.152.338.339v3.592"/><path fill="#4E5664" d="M22.872 8.027v1.475l.09-.14.097.15.097-.15.096.15.097-.15.096.15.097-.15.096.15.097-.15.096.15.097-.15.094.145v-1.48h-1.15ZM27.814 17.505a2.194 2.194 0 1 1-4.388.022 2.194 2.194 0 0 1 4.388-.022"/><path fill="#FFD033" d="M26.925 17.51a1.305 1.305 0 1 1-2.61.012 1.305 1.305 0 0 1 2.61-.012Z"/><path fill="#4E5664" d="M36.348 17.505a2.194 2.194 0 1 1-4.388.022 2.194 2.194 0 0 1 4.388-.022"/><path fill="#FFD033" d="M35.46 17.51a1.305 1.305 0 1 1-2.611.012 1.305 1.305 0 0 1 2.61-.012Z"/><path fill="#4E5664" d="M28.794 13.48h-4.853c-.54 0-.995-1.196 0-1.196.996 0 4.205.41 4.853.41.649 0 .58.785 0 .785Z"/><path fill="#FFD033" d="M33.564 11.463a.376.376 0 0 1-.265.46l-.792.213a.376.376 0 0 1-.46-.265l-.376-1.397a.375.375 0 0 1 .265-.46l.792-.213c.2-.054.406.065.46.265l.376 1.397"/><path fill="#4E5664" d="M32.704 10.454c.05.187-.034.372-.186.412l-1.018.27c-.152.041-.316-.078-.366-.264-.05-.187.034-.371.186-.412l1.018-.27c.153-.04.316.078.366.264"/><path fill="#FFD033" d="M34.194 11.362a.917.917 0 1 1-.434-1.78l.434 1.78"/><path fill="#4E5664" d="M25.437 14.002a.148.148 0 0 1-.148.148h-.956a.148.148 0 0 1 0-.296h.956c.082 0 .148.067.148.148ZM25.437 14.563a.148.148 0 0 1-.148.148h-.956a.148.148 0 1 1 0-.296h.956c.082 0 .148.066.148.148ZM26.531 7.923c-.79 1.141-.65 3.123-.188 4.357.46 1.234 2.5.724 2.328-.187-.286-1.506.06-2.84.084-3.627.032-1.067-1.433-1.683-2.224-.543"/><path fill="#4E5664" d="M29.851 5.97a1.344 1.344 0 1 1-2.687-.001 1.344 1.344 0 0 1 2.687 0Z"/><path fill="#FFD033" d="m29.564 7.557-2.622-1.185s.086-.328.087-.478c0-.459.231-1.264.917-1.454 1.109-.309 1.905.367 2.08.757.136.3.132 1.01.132 1.01l-1.004-.478-.297.857.84.642-.133.329"/><path fill="#4E5664" d="m29.697 7.228-.84-.642.296-.857 1.005.478-.461 1.021M31.295 12.19l-3.591-.938-.54 1.725 3.653.462.478-1.25"/><path fill="#4E5664" d="M30.01 12.895s-.659 2.1-1.645 3.15c-.523.557.39 1.248.865.837.57-.495 1.913-2.64 2.197-3.328.313-.758.178-1.284-.132-1.365-.31-.08-1.285.706-1.285.706M28.316 8.376c.054.937.532 1.53 3.123 1.698.761.05.375 1.224-.252 1.177-3.195-.242-4.031-1.823-4.031-2.828 0-.82 1.106-.983 1.16-.047"/><rect width="7" height="1" x="13" y="17" fill="#166868" fill-opacity=".82" rx=".5"/><rect width="5" height="1" x="7" y="13" fill="#166868" fill-opacity=".4" rx=".5"/><rect width="5" height="1" x="6" y="19" fill="#166868" fill-opacity=".66" rx=".5"/><rect width="3" height="1" y="14" fill="#166868" fill-opacity=".2" rx=".5"/></svg>